<mxfile host="app.diagrams.net" agent="Mozilla/5.0 (Windows NT 10.0; Win64; x64) AppleWebKit/537.36 (KHTML, like Gecko) Chrome/140.0.0.0 Safari/537.36" version="28.2.5">
  <diagram name="Page-1" id="oGp8kFq8iNCxfCcVLvnD">
    <mxGraphModel dx="1895" dy="958" grid="1" gridSize="10" guides="1" tooltips="1" connect="1" arrows="1" fold="1" page="1" pageScale="1" pageWidth="850" pageHeight="1100" math="0" shadow="0">
      <root>
        <mxCell id="0" />
        <mxCell id="1" parent="0" />
        <mxCell id="IqSFfW-BzutIOCeWIQ_R-1" value="User" style="rounded=0;whiteSpace=wrap;html=1;" parent="1" vertex="1">
          <mxGeometry x="220" y="300" width="120" height="60" as="geometry" />
        </mxCell>
        <mxCell id="Tp0h2Z1crtQwhjVJSb2h-1" value="&lt;u&gt;ID&lt;/u&gt;" style="ellipse;whiteSpace=wrap;html=1;" parent="1" vertex="1">
          <mxGeometry x="330" y="160" width="80" height="53.33" as="geometry" />
        </mxCell>
        <mxCell id="Tp0h2Z1crtQwhjVJSb2h-2" value="Full Name" style="ellipse;whiteSpace=wrap;html=1;strokeWidth=3;" parent="1" vertex="1">
          <mxGeometry x="455" y="390" width="85" height="56.67" as="geometry" />
        </mxCell>
        <mxCell id="Tp0h2Z1crtQwhjVJSb2h-3" value="First Name" style="ellipse;whiteSpace=wrap;html=1;" parent="1" vertex="1">
          <mxGeometry x="390" y="500" width="85" height="56.67" as="geometry" />
        </mxCell>
        <mxCell id="Tp0h2Z1crtQwhjVJSb2h-4" value="Last Name" style="ellipse;whiteSpace=wrap;html=1;" parent="1" vertex="1">
          <mxGeometry x="550" y="493" width="85" height="56.67" as="geometry" />
        </mxCell>
        <mxCell id="Tp0h2Z1crtQwhjVJSb2h-5" value="Role" style="ellipse;whiteSpace=wrap;html=1;" parent="1" vertex="1">
          <mxGeometry x="40" y="470" width="85" height="56.67" as="geometry" />
        </mxCell>
        <mxCell id="Tp0h2Z1crtQwhjVJSb2h-8" value="" style="shape=flexArrow;endArrow=classic;html=1;rounded=0;exitX=0.5;exitY=0;exitDx=0;exitDy=0;entryX=0;entryY=0.5;entryDx=0;entryDy=0;" parent="1" source="IqSFfW-BzutIOCeWIQ_R-1" target="Tp0h2Z1crtQwhjVJSb2h-1" edge="1">
          <mxGeometry width="50" height="50" relative="1" as="geometry">
            <mxPoint x="271.25000000000017" y="296.91" as="sourcePoint" />
            <mxPoint x="379.21" y="323.33" as="targetPoint" />
          </mxGeometry>
        </mxCell>
        <mxCell id="Tp0h2Z1crtQwhjVJSb2h-9" value="" style="shape=flexArrow;endArrow=classic;html=1;rounded=0;exitX=1;exitY=0.5;exitDx=0;exitDy=0;entryX=0.242;entryY=0.028;entryDx=0;entryDy=0;entryPerimeter=0;" parent="1" target="Tp0h2Z1crtQwhjVJSb2h-2" edge="1">
          <mxGeometry width="50" height="50" relative="1" as="geometry">
            <mxPoint x="340" y="360" as="sourcePoint" />
            <mxPoint x="460" y="317" as="targetPoint" />
          </mxGeometry>
        </mxCell>
        <mxCell id="Tp0h2Z1crtQwhjVJSb2h-10" value="" style="shape=flexArrow;endArrow=classic;html=1;rounded=0;exitX=1;exitY=1;exitDx=0;exitDy=0;entryX=0.5;entryY=0;entryDx=0;entryDy=0;" parent="1" source="Tp0h2Z1crtQwhjVJSb2h-2" target="Tp0h2Z1crtQwhjVJSb2h-4" edge="1">
          <mxGeometry width="50" height="50" relative="1" as="geometry">
            <mxPoint x="600" y="328" as="sourcePoint" />
            <mxPoint x="736" y="360" as="targetPoint" />
          </mxGeometry>
        </mxCell>
        <mxCell id="Tp0h2Z1crtQwhjVJSb2h-11" value="" style="shape=flexArrow;endArrow=classic;html=1;rounded=0;exitX=0.224;exitY=0.96;exitDx=0;exitDy=0;exitPerimeter=0;entryX=0.5;entryY=0;entryDx=0;entryDy=0;" parent="1" source="Tp0h2Z1crtQwhjVJSb2h-2" target="Tp0h2Z1crtQwhjVJSb2h-3" edge="1">
          <mxGeometry width="50" height="50" relative="1" as="geometry">
            <mxPoint x="538" y="448" as="sourcePoint" />
            <mxPoint x="440" y="490" as="targetPoint" />
          </mxGeometry>
        </mxCell>
        <mxCell id="Tp0h2Z1crtQwhjVJSb2h-12" value="" style="shape=flexArrow;endArrow=classic;html=1;rounded=0;exitX=0;exitY=1;exitDx=0;exitDy=0;entryX=0.5;entryY=0;entryDx=0;entryDy=0;" parent="1" source="IqSFfW-BzutIOCeWIQ_R-1" target="Tp0h2Z1crtQwhjVJSb2h-5" edge="1">
          <mxGeometry width="50" height="50" relative="1" as="geometry">
            <mxPoint x="57.559999999999945" y="358.79999999999995" as="sourcePoint" />
            <mxPoint x="256" y="402" as="targetPoint" />
          </mxGeometry>
        </mxCell>
        <mxCell id="Tp0h2Z1crtQwhjVJSb2h-15" value="&lt;u&gt;Email&lt;/u&gt;" style="ellipse;whiteSpace=wrap;html=1;" parent="1" vertex="1">
          <mxGeometry x="50" y="243.33" width="85" height="56.67" as="geometry" />
        </mxCell>
        <mxCell id="Tp0h2Z1crtQwhjVJSb2h-16" value="" style="shape=flexArrow;endArrow=classic;html=1;rounded=0;exitX=0;exitY=0.25;exitDx=0;exitDy=0;" parent="1" source="IqSFfW-BzutIOCeWIQ_R-1" target="Tp0h2Z1crtQwhjVJSb2h-15" edge="1">
          <mxGeometry width="50" height="50" relative="1" as="geometry">
            <mxPoint x="230" y="340" as="sourcePoint" />
            <mxPoint x="105" y="390" as="targetPoint" />
          </mxGeometry>
        </mxCell>
        <mxCell id="Tp0h2Z1crtQwhjVJSb2h-17" value="Created On" style="ellipse;whiteSpace=wrap;html=1;" parent="1" vertex="1">
          <mxGeometry x="160" y="170" width="85" height="56.67" as="geometry" />
        </mxCell>
        <mxCell id="Tp0h2Z1crtQwhjVJSb2h-18" value="" style="shape=flexArrow;endArrow=classic;html=1;rounded=0;exitX=0.25;exitY=0;exitDx=0;exitDy=0;entryX=0.5;entryY=1;entryDx=0;entryDy=0;" parent="1" source="IqSFfW-BzutIOCeWIQ_R-1" target="Tp0h2Z1crtQwhjVJSb2h-17" edge="1">
          <mxGeometry width="50" height="50" relative="1" as="geometry">
            <mxPoint x="280" y="291" as="sourcePoint" />
            <mxPoint x="190" y="260" as="targetPoint" />
          </mxGeometry>
        </mxCell>
        <mxCell id="Tp0h2Z1crtQwhjVJSb2h-19" value="Auth" style="rounded=0;whiteSpace=wrap;html=1;" parent="1" vertex="1">
          <mxGeometry x="250" y="790" width="120" height="60" as="geometry" />
        </mxCell>
        <mxCell id="Tp0h2Z1crtQwhjVJSb2h-20" value="&lt;u&gt;ID&lt;/u&gt;" style="ellipse;whiteSpace=wrap;html=1;" parent="1" vertex="1">
          <mxGeometry x="490" y="760" width="85" height="56.67" as="geometry" />
        </mxCell>
        <mxCell id="Tp0h2Z1crtQwhjVJSb2h-21" value="&lt;u&gt;Email&lt;/u&gt;" style="ellipse;whiteSpace=wrap;html=1;" parent="1" vertex="1">
          <mxGeometry x="490" y="840" width="85" height="56.67" as="geometry" />
        </mxCell>
        <mxCell id="Tp0h2Z1crtQwhjVJSb2h-22" value="Password" style="ellipse;whiteSpace=wrap;html=1;" parent="1" vertex="1">
          <mxGeometry x="420" y="920" width="85" height="56.67" as="geometry" />
        </mxCell>
        <mxCell id="Tp0h2Z1crtQwhjVJSb2h-23" value="Created On" style="ellipse;whiteSpace=wrap;html=1;" parent="1" vertex="1">
          <mxGeometry x="270" y="940" width="85" height="56.67" as="geometry" />
        </mxCell>
        <mxCell id="Tp0h2Z1crtQwhjVJSb2h-24" value="" style="shape=flexArrow;endArrow=classic;html=1;rounded=0;entryX=0.5;entryY=0;entryDx=0;entryDy=0;exitX=0.5;exitY=1;exitDx=0;exitDy=0;" parent="1" source="Tp0h2Z1crtQwhjVJSb2h-19" target="Tp0h2Z1crtQwhjVJSb2h-23" edge="1">
          <mxGeometry width="50" height="50" relative="1" as="geometry">
            <mxPoint x="310" y="860" as="sourcePoint" />
            <mxPoint x="310" y="920" as="targetPoint" />
          </mxGeometry>
        </mxCell>
        <mxCell id="Tp0h2Z1crtQwhjVJSb2h-25" value="" style="shape=flexArrow;endArrow=classic;html=1;rounded=0;exitX=0.87;exitY=0.964;exitDx=0;exitDy=0;entryX=0;entryY=0;entryDx=0;entryDy=0;exitPerimeter=0;" parent="1" source="Tp0h2Z1crtQwhjVJSb2h-19" target="Tp0h2Z1crtQwhjVJSb2h-22" edge="1">
          <mxGeometry width="50" height="50" relative="1" as="geometry">
            <mxPoint x="319.82" y="919" as="sourcePoint" />
            <mxPoint x="318.82" y="1030" as="targetPoint" />
          </mxGeometry>
        </mxCell>
        <mxCell id="Tp0h2Z1crtQwhjVJSb2h-26" value="" style="shape=flexArrow;endArrow=classic;html=1;rounded=0;exitX=1;exitY=0.5;exitDx=0;exitDy=0;entryX=0.009;entryY=0.332;entryDx=0;entryDy=0;entryPerimeter=0;" parent="1" source="Tp0h2Z1crtQwhjVJSb2h-19" target="Tp0h2Z1crtQwhjVJSb2h-21" edge="1">
          <mxGeometry width="50" height="50" relative="1" as="geometry">
            <mxPoint x="329.82" y="929" as="sourcePoint" />
            <mxPoint x="417" y="1008" as="targetPoint" />
          </mxGeometry>
        </mxCell>
        <mxCell id="Tp0h2Z1crtQwhjVJSb2h-27" value="" style="shape=flexArrow;endArrow=classic;html=1;rounded=0;exitX=1;exitY=0;exitDx=0;exitDy=0;entryX=0;entryY=0.5;entryDx=0;entryDy=0;" parent="1" source="Tp0h2Z1crtQwhjVJSb2h-19" target="Tp0h2Z1crtQwhjVJSb2h-20" edge="1">
          <mxGeometry width="50" height="50" relative="1" as="geometry">
            <mxPoint x="330" y="900" as="sourcePoint" />
            <mxPoint x="476" y="939" as="targetPoint" />
          </mxGeometry>
        </mxCell>
        <mxCell id="Tp0h2Z1crtQwhjVJSb2h-32" value="" style="edgeStyle=orthogonalEdgeStyle;rounded=0;orthogonalLoop=1;jettySize=auto;html=1;endArrow=none;endFill=0;" parent="1" source="Tp0h2Z1crtQwhjVJSb2h-28" target="IqSFfW-BzutIOCeWIQ_R-1" edge="1">
          <mxGeometry relative="1" as="geometry" />
        </mxCell>
        <mxCell id="Tp0h2Z1crtQwhjVJSb2h-35" value="" style="edgeStyle=orthogonalEdgeStyle;rounded=0;orthogonalLoop=1;jettySize=auto;html=1;endArrow=none;endFill=0;" parent="1" source="Tp0h2Z1crtQwhjVJSb2h-28" target="Tp0h2Z1crtQwhjVJSb2h-19" edge="1">
          <mxGeometry relative="1" as="geometry" />
        </mxCell>
        <mxCell id="Tp0h2Z1crtQwhjVJSb2h-28" value="has to" style="rhombus;whiteSpace=wrap;html=1;" parent="1" vertex="1">
          <mxGeometry x="270" y="630" width="80" height="80" as="geometry" />
        </mxCell>
        <mxCell id="Tp0h2Z1crtQwhjVJSb2h-36" value="&lt;font style=&quot;font-size: 10px;&quot;&gt;1&lt;/font&gt;" style="rounded=0;whiteSpace=wrap;html=1;strokeColor=none;" parent="1" vertex="1">
          <mxGeometry x="271.25" y="771" width="34.75" height="14" as="geometry" />
        </mxCell>
        <mxCell id="Tp0h2Z1crtQwhjVJSb2h-38" value="&lt;font style=&quot;font-size: 10px;&quot;&gt;1&lt;/font&gt;" style="rounded=0;whiteSpace=wrap;html=1;strokeColor=none;" parent="1" vertex="1">
          <mxGeometry x="290" y="366" width="34.75" height="14" as="geometry" />
        </mxCell>
        <mxCell id="jiPg874X8MNnM9anhQbm-1" value="Estate" style="rounded=0;whiteSpace=wrap;html=1;" vertex="1" parent="1">
          <mxGeometry x="800" y="300.00000000000006" width="120" height="60" as="geometry" />
        </mxCell>
        <mxCell id="jiPg874X8MNnM9anhQbm-2" value="&lt;u&gt;&lt;font style=&quot;font-size: 10px;&quot;&gt;ID&lt;/font&gt;&lt;/u&gt;" style="ellipse;whiteSpace=wrap;html=1;" vertex="1" parent="1">
          <mxGeometry x="1020" y="260" width="62.51" height="41.67" as="geometry" />
        </mxCell>
        <mxCell id="jiPg874X8MNnM9anhQbm-3" value="&lt;font style=&quot;font-size: 10px;&quot;&gt;Estate Code&lt;/font&gt;" style="ellipse;whiteSpace=wrap;html=1;" vertex="1" parent="1">
          <mxGeometry x="1020" y="329.16999999999996" width="90" height="41.67" as="geometry" />
        </mxCell>
        <mxCell id="jiPg874X8MNnM9anhQbm-4" value="&lt;span style=&quot;font-size: 10px;&quot;&gt;Fields Count&lt;/span&gt;" style="ellipse;whiteSpace=wrap;html=1;" vertex="1" parent="1">
          <mxGeometry x="992.51" y="405" width="90" height="41.67" as="geometry" />
        </mxCell>
        <mxCell id="jiPg874X8MNnM9anhQbm-5" value="&lt;span style=&quot;font-size: 10px;&quot;&gt;Blocks Count&lt;/span&gt;" style="ellipse;whiteSpace=wrap;html=1;" vertex="1" parent="1">
          <mxGeometry x="902.51" y="458.33" width="90" height="41.67" as="geometry" />
        </mxCell>
        <mxCell id="jiPg874X8MNnM9anhQbm-6" value="Created On" style="ellipse;whiteSpace=wrap;html=1;" vertex="1" parent="1">
          <mxGeometry x="790" y="458.33" width="85" height="56.67" as="geometry" />
        </mxCell>
        <mxCell id="jiPg874X8MNnM9anhQbm-13" value="Head Office" style="rounded=0;whiteSpace=wrap;html=1;" vertex="1" parent="1">
          <mxGeometry x="800" y="680" width="120" height="60" as="geometry" />
        </mxCell>
        <mxCell id="jiPg874X8MNnM9anhQbm-14" value="Email" style="ellipse;whiteSpace=wrap;html=1;" vertex="1" parent="1">
          <mxGeometry x="825.49" y="817.3299999999999" width="85" height="56.67" as="geometry" />
        </mxCell>
        <mxCell id="jiPg874X8MNnM9anhQbm-15" value="&lt;u&gt;&lt;font style=&quot;font-size: 10px;&quot;&gt;ID&lt;/font&gt;&lt;/u&gt;" style="ellipse;whiteSpace=wrap;html=1;" vertex="1" parent="1">
          <mxGeometry x="970" y="620" width="62.51" height="41.67" as="geometry" />
        </mxCell>
        <mxCell id="jiPg874X8MNnM9anhQbm-18" value="" style="group" vertex="1" connectable="0" parent="1">
          <mxGeometry x="930" y="790" width="90" height="49.66999999999996" as="geometry" />
        </mxCell>
        <mxCell id="jiPg874X8MNnM9anhQbm-17" value="" style="ellipse;whiteSpace=wrap;html=1;" vertex="1" parent="jiPg874X8MNnM9anhQbm-18">
          <mxGeometry width="90" height="49.67" as="geometry" />
        </mxCell>
        <mxCell id="jiPg874X8MNnM9anhQbm-16" value="Address" style="ellipse;whiteSpace=wrap;html=1;" vertex="1" parent="jiPg874X8MNnM9anhQbm-18">
          <mxGeometry y="3.9999999999998863" width="90" height="41.67" as="geometry" />
        </mxCell>
        <mxCell id="jiPg874X8MNnM9anhQbm-19" value="Name" style="ellipse;whiteSpace=wrap;html=1;" vertex="1" parent="1">
          <mxGeometry x="958.75" y="703.3299999999999" width="85" height="56.67" as="geometry" />
        </mxCell>
        <mxCell id="jiPg874X8MNnM9anhQbm-21" value="Created On" style="ellipse;whiteSpace=wrap;html=1;" vertex="1" parent="1">
          <mxGeometry x="715" y="809.9999999999999" width="85" height="56.67" as="geometry" />
        </mxCell>
      </root>
    </mxGraphModel>
  </diagram>
</mxfile>
